<?xml version="1.0" standalone="no"?>
<!DOCTYPE svg PUBLIC "-//W3C//DTD SVG 20010904//EN"
 "http://www.w3.org/TR/2001/REC-SVG-20010904/DTD/svg10.dtd">
<svg version="1.0" xmlns="http://www.w3.org/2000/svg"
 width="230.000000pt" height="255.000000pt" viewBox="0 0 230.000000 255.000000"
 preserveAspectRatio="xMidYMid meet">

<g transform="translate(0.000000,255.000000) scale(0.100000,-0.100000)"
fill="#000000" stroke="none">
<path d="M1009 2477 c-90 -38 -144 -85 -206 -177 -79 -118 -614 -1188 -698
-1395 -40 -98 -47 -241 -16 -333 68 -201 251 -334 460 -335 178 -1 338 73 508
237 l82 78 68 -62 c193 -178 350 -253 528 -252 192 1 364 110 442 279 13 28
31 88 39 133 28 147 16 181 -263 750 -90 184 -232 465 -316 625 -170 324 -216
386 -324 440 -49 24 -72 29 -153 32 -82 3 -103 0 -151 -20z m247 -141 c69 -32
109 -83 202 -259 196 -369 567 -1127 609 -1241 8 -23 15 -75 15 -116 1 -142
-65 -251 -190 -312 -62 -31 -74 -33 -167 -33 -92 0 -105 3 -169 33 -89 42
-176 105 -253 184 l-62 63 35 45 c106 133 196 293 235 420 32 103 32 231 0
313 -29 74 -106 154 -184 191 -153 72 -358 38 -470 -78 -173 -178 -128 -463
129 -808 l68 -91 -74 -69 c-85 -80 -167 -138 -248 -176 -51 -24 -69 -27 -167
-27 -102 0 -114 2 -168 30 -155 78 -226 259 -168 426 27 79 208 457 395 824
219 431 295 569 335 617 46 54 120 88 191 88 37 0 72 -8 106 -24z m13 -832
c187 -94 166 -335 -56 -650 -66 -94 -64 -94 -117 -25 -141 183 -218 382 -195
504 11 60 29 94 71 134 48 46 93 62 174 63 56 0 80 -5 123 -26z"/>
</g>
</svg>
